/* XPM */
static char *logo[] = {
/* columns rows colors chars-per-pixel */
"24 24 97 2 ",
"   c None",
".  c #377827",
"X  c #397D29",
"o  c #D24503",
"O  c #D04706",
"+  c #DB4700",
"@  c #CF4E10",
"#  c #E04800",
"$  c #FF5200",
"%  c #FF5301",
"&  c #FF5B0D",
"*  c #FF6218",
"=  c #FF6A23",
"-  c #FF7432",
";  c #FE7A3B",
":  c #FD7C3E",
">  c #F27B42",
",  c #F67C41",
"<  c #3E872D",
"1  c #3E892C",
"2  c #3F8A2D",
"3  c #3F882E",
"4  c #40882F",
"5  c #408B2E",
"6  c #408C2F",
"7  c #418C2F",
"8  c #418D2F",
"9  c #418E2F",
"0  c #428E2F",
"q  c #458037",
"w  c #428B30",
"e  c #428E30",
"r  c #428F30",
"t  c #438F30",
"y  c #448D32",
"u  c #448F32",
"i  c #439031",
"p  c #459332",
"a  c #469433",
"s  c #469534",
"d  c #479534",
"f  c #479634",
"g  c #479635",
"h  c #489635",
"j  c #4F963E",
"k  c #5E9451",
"l  c #5E9C50",
"z  c #5F9F50",
"x  c #609653",
"c  c #609C51",
"v  c #609D52",
"b  c #639A56",
"n  c #639F55",
"m  c #649758",
"M  c #659A58",
"N  c #659A59",
"B  c #679A5B",
"V  c #6D9A5E",
"C  c #789357",
"Z  c #75985A",
"A  c #64A055",
"S  c #65A058",
"D  c #66A058",
"F  c #67A259",
"G  c #68A05A",
"H  c #6AA05D",
"J  c #69A35C",
"K  c #6DA55F",
"L  c #6DA85E",
"P  c #70A763",
"I  c #71A565",
"U  c #70AA62",
"Y  c #73AA66",
"T  c #78AE6B",
"R  c #7AAD6E",
"E  c #7EB072",
"W  c #8D884F",
"Q  c #868A51",
"!  c #84AD7B",
"~  c #80B175",
"^  c #82B177",
"/  c #83B378",
"(  c #86B57B",
")  c #CF905F",
"_  c #E79567",
"`  c #EE9368",
"'  c #FA9768",
"]  c #F29F77",
"[  c #FBA177",
"{  c #F8A279",
"}  c #89A880",
"|  c #8EBA83",
" . c #91BD86",
".. c #96BE8C",
"X. c #F4B698",
"o. c #B2C4AC",
"O. c #F8C7B0",
/* pixels */
"                                                ",
"                                                ",
"                  E 4 4 2 D                     ",
"                  0 0 0 p 4 R                   ",
"                T r r 0 h 0 D                   ",
"          K y   L r r 0 h 0 c                   ",
"          J 0   U r r 0 h 0 c   ~ z             ",
"          P 0 I R r r 0 f 0 n   A 0             ",
"          | 0 < x r r 0 f r D   z 2             ",
"            / w k r r 0 f r G   j 2             ",
"              ( B i r 0 f r J q r y             ",
"                ..i 0 0 f r b . r ~             ",
"                 .r 0 0 f r B X Y               ",
"                  r 0 0 a r B m                 ",
"                  r 0 0 a r !                   ",
"                o.2 0 0 a 0 }                   ",
"                _ W C V Z Q ) O.                ",
"                * $ $ $ $ $ $                   ",
"                X.> : - ; , ]                   ",
"                  # o @ O + `                   ",
"                  $ $ $ $ $ [                   ",
"                  = $ $ $ &                     ",
"                      ' {                       ",
"                                                "
};
