/* XPM */
static char *logo[] = {
/* columns rows colors chars-per-pixel */
"16 16 53 1 ",
"  c None",
". c #3A7F2A",
"X c #F34E00",
"o c #F74F00",
"O c #FC5100",
"+ c #FD661D",
"@ c #FE671F",
"# c #E4672C",
"$ c #E8682B",
"% c #EB692B",
"& c #F46E2A",
"* c #FE6E2A",
"= c #E8712D",
"- c #E17230",
"; c #FE7A3B",
": c #FC7C3F",
"> c #3B802A",
", c #408B2E",
"< c #418A2F",
"1 c #408C2E",
"2 c #418C2E",
"3 c #418C2F",
"4 c #418D2F",
"5 c #428C2F",
"6 c #448E31",
"7 c #4E8C3F",
"8 c #449131",
"9 c #459232",
"0 c #569746",
"q c #559845",
"w c #569847",
"e c #569248",
"r c #5A994B",
"t c #599C49",
"y c #5A9C49",
"u c #5B9D4B",
"i c #5B994C",
"p c #5C9A4D",
"a c #5C9D4C",
"s c #5F9F50",
"d c #619853",
"f c #619F52",
"g c #649C56",
"h c #73985F",
"j c #67A159",
"k c #68A05B",
"l c #6BA45D",
"z c #70A763",
"x c #72A965",
"c c #FD8147",
"v c #E98657",
"b c #8AB580",
"n c #C7C6B0",
/* pixels */
"                ",
"      z0p       ",
"      188f      ",
"    j 188u      ",
"   lq 188u q    ",
"    6d188u <    ",
"    xe188sg1    ",
"     b188r>a    ",
"      188i7     ",
"      188k      ",
"     n.1<h      ",
"     c&-=@      ",
"      #%%v      ",
"      OXo:      ",
"      ;@*       ",
"                "
};
